<?xml version="1.0" standalone="no"?>
<!DOCTYPE svg PUBLIC "-//W3C//DTD SVG 1.1//EN" "http://www.w3.org/Graphics/SVG/1.1/DTD/svg11.dtd" >
<svg xmlns="http://www.w3.org/2000/svg">
<metadata>Generated by IcoMoon</metadata>
<defs>
<font id="icomoon" horiz-adv-x="512">
<font-face units-per-em="512" ascent="480" descent="-32" />
<missing-glyph horiz-adv-x="512" />
<glyph unicode="&#x20;" d="" horiz-adv-x="256" />
<glyph unicode="&#xe600;" d="M512 176l-96 96v144h-64v-80l-96 96-256-256v-16h64v-160h160v96h64v-96h160v160h64z" />
<glyph unicode="&#xe601;" d="M160 384c0 53.019 42.981 96 96 96s96-42.981 96-96c0-53.019-42.981-96-96-96s-96 42.981-96 96zM384.039 256h-17.712l-99.552-202.122 37.225 186.122-48 48-48-48 37.225-186.122-99.551 202.122h-17.712c-63.962 0-63.962-42.993-63.962-96v-160h384v160c0 53.007 0 96-63.961 96z" />
<glyph unicode="&#xe602;" d="M233.573 69.695c12.007 38.082 20.709 41.111 43.392 57.572 22.683 16.449 22.983 29.716 24.351 48.769 1.375 19.053-28.397 53.077-28.397 53.077s136.789 153.105 141.608 158.835c4.837 5.737 21.663 4.71 21.663 4.71s2.029 6.162 7.399 15.085l1.386-1.267c-0.714-1.716-0.198-3.919 1.458-5.431 2.034-1.872 4.969-1.962 6.565-0.234 1.597 1.74 1.23 4.656-0.804 6.517-1.651 1.512-3.906 1.843-5.545 0.978l-1.74 1.584c2.202 3.486 4.891 7.315 8.125 11.323 0.774 0.966 1.56 1.885 2.37 2.779l3.055-2.809c-0.714-1.704-0.186-3.906 1.465-5.431 2.041-1.86 4.969-1.962 6.571-0.222 1.584 1.74 1.218 4.656-0.81 6.517-1.651 1.512-3.901 1.843-5.545 0.985l-3.024 2.773c4.416 4.56 9.091 8.221 13.25 10.999l2.37-2.178c-0.714-1.704-0.186-3.911 1.471-5.431 2.034-1.86 4.969-1.962 6.565-0.222 1.584 1.74 1.218 4.656-0.816 6.517-1.651 1.512-3.894 1.843-5.533 0.985l-1.885 1.734c5.995 3.762 10.418 5.533 10.418 5.533l-0.126 22.959-9.469 4.44-5.257 9.036-22.881-1.885c0 0-1.375-4.573-4.603-10.88l-2.995 2.748c0.714 1.704 0.186 3.919-1.471 5.431-2.034 1.86-4.969 1.962-6.565 0.222-1.584-1.74-1.218-4.656 0.81-6.517 1.656-1.512 3.889-1.842 5.539-0.984l3.481-3.186c-2.394-4.38-5.629-9.361-9.793-14.162l-2.904 2.658c0.721 1.716 0.198 3.919-1.465 5.431-2.034 1.86-4.975 1.962-6.559 0.222-1.59-1.728-1.224-4.644 0.81-6.517 1.651-1.512 3.889-1.842 5.533-0.984l2.935-2.689c-0.816-0.876-1.668-1.746-2.55-2.598-3.709-3.57-7.291-6.577-10.574-9.085l-1.62 1.483c0.714 1.71 0.186 3.919-1.465 5.431-2.029 1.866-4.975 1.962-6.559 0.222-1.597-1.734-1.23-4.651 0.804-6.505 1.656-1.512 3.894-1.854 5.533-0.985l1.278-1.164c-8.419-6.126-14.378-8.701-14.378-8.701s2.502-16.671-2.784-21.981c-5.286-5.31-145.761-155.049-145.761-155.049s-36.51 26.65-55.364 23.613c-18.861-3.036-32.045-4.501-46.44-28.546s-16.653-32.98-53.516-48.301c-36.87-15.313-72.886-29.704-82.535-51.337-9.644-21.627-29.134-60.464 45.426-128.73 74.56-68.26 111.531-45.426 132.228-33.905 20.691 11.522 31.858 48.673 43.872 86.742zM223.606 198.336c10.363-9.493 11.077-25.594 1.584-35.962-9.5-10.375-25.594-11.084-35.969-1.59-10.369 9.486-11.084 25.6-1.584 35.969 9.494 10.37 25.594 11.084 35.969 1.584zM159.877 73.291l-55.226 50.557 10.112 11.048 15.093-11.701 3.906 1.5 8.516-7.801 7.369-6.733 8.516-7.801-1.152-4.027 12.986-14-10.118-11.042z" />
<glyph unicode="&#xe603;" d="M393.534 358.462c-27.058 29.5-38.767 64.163-29.839 83.714l-23.431 25.549-325.813-298.809 23.431-25.549c20.248 7.209 53.772-7.449 80.828-36.949s38.767-64.163 29.838-83.714l23.431-25.549 325.813 298.811-23.431 25.546c-20.248-7.206-53.772 7.449-80.826 36.95z" />
<glyph unicode="&#xe604;" d="M255.607 473.549c-90.232 0-311.785-33.621-147.507-320.262 70.275-122.596 119.706-178.841 147.968-178.841 28.268 0 77.704 56.246 147.98 178.841 164.278 286.646-58.209 320.262-148.44 320.262zM339.342 199.515c0-20.275-23.296-27.557-38.281-27.557-21.123 0-38.264 12.328-38.264 27.557 0 15.207 17.14 27.534 38.264 27.534 9.142 0 17.539-2.31 24.127-6.144 0 0 0 53.47 0 89.44l-101.274-10.786v-112.356c0-20.258-23.296-27.534-38.281-27.534-21.129 0-38.263 12.328-38.263 27.534 0 15.235 17.129 27.557 38.263 27.557 9.142 0 17.533-2.304 24.126-6.156 0 0 0 115.609 0 120.718s4.318 6.224 7.054 6.514c2.759 0.302 115.439 12.305 115.439 12.305 5.291 0.347 7.094-2.048 7.094-8.272v-140.356z" />
<glyph unicode="&#xe605;" d="M352 160c-32-32-32-64-64-64s-64 32-96 64-64 64-64 96 32 32 64 64-64 128-96 128-96-96-96-96c0-64 65.75-193.75 128-256s192-128 256-128c0 0 96 64 96 96s-96 128-128 96z" />
<glyph unicode="&#xe606;" d="M416 416v-32.752c0-35.376-28.624-64-64-64s-64 28.624-64 64v32.752h-64v-32.752c0-35.376-28.624-64-64-64s-64 28.624-64 64v32.752h-96v-448h512v448h-96zM160 32h-64v64h64v-64zM160 160h-64v64h64v-64zM288 32h-64v64h64v-64zM288 160h-64v64h64v-64zM352 32v64h64l-64-64zM416 160h-64v64h64v-64zM128 384v64c0 17.68 14.32 32 32 32s32-14.32 32-32v-64c0-17.68-14.32-32-32-32s-32 14.32-32 32zM320 384v64c0 17.68 14.32 32 32 32s32-14.32 32-32v-64c0-17.68-14.32-32-32-32s-32 14.32-32 32z" />
<glyph unicode="&#xe607;" d="M224 82.745l-102.627 118.627 29.254 29.255 73.373-57.372 137.372 121.372 29.256-29.254zM415.886 416c0.039-0.033 0.081-0.075 0.114-0.115v-383.771c-0.033-0.039-0.075-0.081-0.114-0.114h-319.772c-0.040 0.033-0.081 0.075-0.114 0.114v383.772c0.033 0.040 0.075 0.081 0.115 0.114h-64.115v-384c0-35.2 28.8-64 64-64h320c35.2 0 64 28.8 64 64v384h-64.114zM320 416v32c0 17.673-14.327 32-32 32h-64c-17.673 0-32-14.327-32-32v-32h-64v-64h256v64h-64zM288 416h-64v32h64v-32z" />
<glyph unicode="&#xe608;" d="M32 384h448v-96h-448zM32 256h448v-96h-448zM32 128h448v-96h-448z" />
<glyph unicode="&#xe609;" d="M447.968 96c-15.504 0-29.248-6.256-40.368-15.44l-97.536 69.632c6.192 12.752 9.936 26.752 9.936 41.808 0 20.688-6.752 39.808-17.872 55.44l114.096 114.192c9.488-5.568 20-9.632 31.744-9.632 35.376 0 64 28.624 64 64s-28.624 64-64 64-64-28.624-64-64c0-11.808 4.128-22.256 9.632-31.744l-114.096-114.192c-15.76 11.248-34.752 17.936-55.504 17.936-36.624 0-68.128-20.816-84.32-51.056l-77.056 25.744c-3.12 14.368-15.312 25.312-30.624 25.312-17.68 0-32-14.32-32-32s14.32-32 32-32c8.064 0 15.248 3.248 20.88 8.192l76.624-25.568c-0.752-4.816-1.504-9.632-1.504-14.624 0-52.992 43.008-96 96-96 26.368 0 50.32 10.688 67.68 27.936l96.912-69.184c-2.752-7.12-4.624-14.688-4.624-22.752 0-35.312 28.624-64 64-64s64 28.688 64 64-28.624 64-64 64z" horiz-adv-x="511" />
<glyph unicode="&#xe60a;" d="M322.128 480c-104.624 0-189.76-85.12-189.76-189.808 0-25.056 5.12-48.816 13.936-70.688l-146.304-146.32 105.12-105.184 146.368 146.432c21.872-8.88 45.632-14 70.624-14 104.688 0 189.872 85.12 189.872 189.728 0.016 104.72-85.168 189.84-189.856 189.84zM322.128 164.368c-69.312 0-125.808 56.496-125.808 125.792 0 69.376 56.496 125.872 125.808 125.872 69.44 0 125.936-56.496 125.936-125.872 0-69.28-56.496-125.792-125.936-125.792z" />
<glyph unicode="&#xe60b;" d="M32 224c17.68 0 32-14.32 32-32v-128c0-17.68-14.32-32-32-32h-32v-64h256v64h-31.872c-17.632 0-32.128 14.32-32.128 32l-0.064 224h-191.936v-64h32zM64 416c0 35.346 28.654 64 64 64s64-28.654 64-64c0-35.346-28.654-64-64-64s-64 28.654-64 64z" horiz-adv-x="256" />
<glyph unicode="&#xe60c;" d="M256 416c-141.376 0-256-189.504-256-189.504s114.624-194.496 256-194.496 256 194.496 256 194.496-114.624 189.504-256 189.504zM256 96c-70.688 0-128 57.312-128 128s57.312 128 128 128 128-57.312 128-128-57.312-128-128-128zM192 224c0 35.346 28.654 64 64 64s64-28.654 64-64c0-35.346-28.654-64-64-64s-64 28.654-64 64z" />
<glyph unicode="&#xe60d;" d="M401.019 434.938c36.404 0 65.918-29.512 65.918-65.918 0-14.839-4.907-28.534-13.183-39.551l-26.367-26.367-92.285 92.285 26.367 26.367c11.017 8.276 24.71 13.183 39.551 13.183zM71.43 131.715l-26.367-118.652 118.653 26.367 243.896 243.897-92.285 92.285-243.897-243.896zM339.872 285.148l-184.571-184.571-22.724 22.724 184.571 184.57 22.724-22.723z" />
<glyph unicode="&#xe60e;" d="M448 384h-384v-320h384v320zM512 448v0-448h-512v448h512zM416 96h-320v64l96 160 131.5-160 92.5 64v-32zM320 304c0 26.51 21.49 48 48 48s48-21.49 48-48c0-26.51-21.49-48-48-48s-48 21.49-48 48z" />
<glyph unicode="&#xe60f;" d="M496.131 44.302l-121.276 103.147c-12.537 11.283-25.945 16.463-36.776 15.963 28.628 33.534 45.921 77.039 45.921 124.588 0 106.039-85.961 192-192 192s-192-85.961-192-192c0-106.039 85.961-192 192-192 47.549 0 91.054 17.293 124.588 45.922-0.5-10.831 4.68-24.239 15.963-36.776l103.147-121.276c17.661-19.623 46.511-21.277 64.11-3.678s15.946 46.449-3.677 64.11zM192 160c-70.692 0-128 57.308-128 128s57.308 128 128 128 128-57.308 128-128-57.307-128-128-128z" />
<glyph unicode="&#xe610;" d="M466.895 174.875c-26.863 46.527-10.708 106.152 36.076 133.244l-50.313 87.146c-14.375-8.427-31.088-13.259-48.923-13.259-53.768 0-97.354 43.873-97.354 97.995h-100.629c0.133-16.705-4.037-33.641-12.979-49.126-26.862-46.528-86.578-62.351-133.431-35.379l-50.312-87.146c14.485-8.236 27.025-20.294 35.943-35.739 26.819-46.454 10.756-105.96-35.854-133.112l50.313-87.146c14.325 8.348 30.958 13.127 48.7 13.127 53.598 0 97.072-43.596 97.35-97.479h100.627c-0.043 16.537 4.136 33.285 12.983 48.609 26.818 46.453 86.388 62.297 133.207 35.506l50.313 87.145c-14.39 8.233-26.846 20.249-35.717 35.614zM256 120.334c-57.254 0-103.668 46.412-103.668 103.667 0 57.254 46.413 103.667 103.668 103.667s103.666-46.413 103.666-103.667c-0.001-57.255-46.412-103.667-103.666-103.667z" />
<glyph unicode="&#xe611;" d="M115.375-1h281.25l28.125 309.375h-337.5zM312.25 392.75v56.25h-112.5v-56.25h-140.625v-84.375l28.125 28.125h337.5l28.125-28.125v84.375h-140.625zM284.125 392.75h-56.25v28.125h56.25v-28.125z" />
<glyph unicode="&#xe612;" d="M507.331 68.67c-0.002 0.002-0.004 0.004-0.006 0.005l-155.322 155.325 155.322 155.325c0.002 0.002 0.004 0.003 0.006 0.005 1.672 1.673 2.881 3.627 3.656 5.708 2.123 5.688 0.912 12.341-3.662 16.915l-73.373 73.373c-4.574 4.573-11.225 5.783-16.914 3.66-2.080-0.775-4.035-1.984-5.709-3.655 0-0.002-0.002-0.003-0.004-0.005l-155.324-155.326-155.324 155.325c-0.002 0.002-0.003 0.003-0.005 0.005-1.673 1.671-3.627 2.88-5.707 3.655-5.69 2.124-12.341 0.913-16.915-3.66l-73.374-73.374c-4.574-4.574-5.784-11.226-3.661-16.914 0.776-2.080 1.985-4.036 3.656-5.708 0.002-0.001 0.003-0.003 0.005-0.005l155.325-155.324-155.325-155.326c-0.001-0.002-0.003-0.003-0.004-0.005-1.671-1.673-2.88-3.627-3.657-5.707-2.124-5.688-0.913-12.341 3.661-16.915l73.374-73.373c4.575-4.574 11.226-5.784 16.915-3.661 2.080 0.776 4.035 1.985 5.708 3.656 0.001 0.002 0.003 0.003 0.005 0.005l155.324 155.325 155.324-155.325c0.002-0.001 0.004-0.003 0.006-0.004 1.674-1.672 3.627-2.881 5.707-3.657 5.689-2.123 12.342-0.913 16.914 3.661l73.373 73.374c4.574 4.574 5.785 11.227 3.662 16.915-0.776 2.080-1.985 4.034-3.657 5.707z" />
<glyph unicode="&#xe613;" d="M256 449c-124.264 0-225-100.736-225-225s100.736-225 225-225 225 100.736 225 225-100.736 225-225 225zM320.487 119.737l-92.612 92.613v124.15h56.25v-100.85l76.138-76.137-39.776-39.776z" />
<glyph unicode="&#xe614;" d="M410.688 449c-38.836 0-70.313-31.479-70.313-70.313v-210.938h56.25v-168.75h84.375v379.688c0 38.834-31.48 70.313-70.313 70.313zM213.813 449c-7.768 0-14.063-6.296-14.063-14.063v-98.438c0-3.883-6.297-7.031-14.063-7.031-7.768 0-14.063 3.148-14.063 7.031v98.438c0 7.766-6.297 14.063-14.063 14.063s-14.063-6.296-14.063-14.063v-98.438c0-3.883-6.297-7.031-14.063-7.031s-14.063 3.148-14.063 7.031v98.438c0 7.766-6.296 14.063-14.063 14.063s-14.063-6.296-14.063-14.063v-98.438c0-3.883-6.296-7.031-14.063-7.031s-14.063 3.148-14.063 7.031v98.438c0 7.766-6.297 14.063-14.063 14.063s-14.063-6.296-14.063-14.063v-126.563c0-12.445 11.012-19.384 23.293-28.125 15.473-11.014 32.957-24.889 32.957-56.25v-225h84.375v225c0 31.361 17.484 45.236 32.956 56.25 12.281 8.741 23.294 15.68 23.294 28.125v126.563c0 7.766-6.296 14.063-14.063 14.063z" />
<glyph unicode="&#xe615;" d="M476.698 442.679l-2.014 2.021c-47.074 47.067-124.097 47.067-171.163 0l-109.053-109.068c-47.067-47.066-47.067-124.088 0-171.155l2.013-2.013c3.916-3.924 8.073-7.462 12.368-10.729l39.924 39.925c-4.651 2.747-9.063 6.036-13.058 10.030l-2.021 2.021c-25.557 25.549-25.557 67.136 0 92.695l109.064 109.056c25.558 25.559 67.137 25.559 92.693 0l2.021-2.012c25.55-25.558 25.55-67.146 0-92.695l-49.343-49.343c8.566-21.154 12.624-43.7 12.269-66.193l76.302 76.302c47.067 47.068 47.067 124.089-0.002 171.158zM315.521 285.533c-3.916 3.916-8.073 7.461-12.368 10.72l-39.924-39.916c4.652-2.748 9.063-6.037 13.058-10.031l2.021-2.020c25.558-25.558 25.558-67.136 0-92.694l-109.065-109.067c-25.559-25.551-67.138-25.551-92.694 0l-2.021 2.021c-25.549 25.56-25.549 67.138 0 92.694l49.344 49.343c-8.567 21.153-12.623 43.701-12.269 66.193l-76.301-76.299c-47.068-47.066-47.068-124.089 0-171.162l2.013-2.016c47.076-47.064 124.096-47.064 171.164 0l109.055 109.059c47.067 47.066 47.067 124.097 0 171.163l-2.013 2.012z" />
<glyph unicode="&#xe616;" d="M256 384c-111.659 0-208.441-65.021-256-160 47.559-94.979 144.341-160 256-160 111.657 0 208.439 65.021 256 160-47.558 94.979-144.343 160-256 160zM382.225 299.148c30.081-19.187 55.571-44.887 74.717-75.148-19.146-30.261-44.637-55.961-74.718-75.149-37.797-24.108-81.445-36.851-126.224-36.851-44.78 0-88.428 12.743-126.225 36.852-30.080 19.186-55.57 44.886-74.717 75.148 19.146 30.262 44.637 55.962 74.717 75.148 1.959 1.25 3.938 2.461 5.929 3.65-4.979-13.664-7.704-28.411-7.704-43.798 0-70.692 57.308-128 128-128s128 57.308 128 128c0 15.387-2.725 30.134-7.704 43.799 1.99-1.189 3.969-2.401 5.929-3.651zM256 275c0-26.51-21.49-48-48-48s-48 21.49-48 48 21.49 48 48 48 48-21.49 48-48z" />
<glyph unicode="&#xe617;" d="M432 416l-240-240-112 112-80-80 192-192 320 320z" />
<glyph unicode="&#xe618;" d="M0 272v-96c0-8.836 7.164-16 16-16h480c8.836 0 16 7.164 16 16v96c0 8.836-7.164 16-16 16h-480c-8.836 0-16-7.164-16-16z" />
<glyph unicode="&#xe619;" d="M496 288h-176v176c0 8.836-7.164 16-16 16h-96c-8.836 0-16-7.164-16-16v-176h-176c-8.836 0-16-7.164-16-16v-96c0-8.836 7.164-16 16-16h176v-176c0-8.836 7.164-16 16-16h96c8.836 0 16 7.164 16 16v176h176c8.836 0 16 7.164 16 16v96c0 8.836-7.164 16-16 16z" />
<glyph unicode="&#xe61a;" d="M256 448c-132.548 0-240-107.452-240-240s107.452-240 240-240c132.549 0 240 107.451 240 240s-107.451 240-240 240zM256 16c-106.039 0-192 85.961-192 192s85.961 192 192 192c106.039 0 192-85.961 192-192s-85.961-192-192-192zM272 224v64h64v32h-64v32h-32v-32h-64v-128h64v-64h-64v-32h64v-32h32v32h64.001l-0.001 128h-64zM240 224h-32v64h32v-64zM304.001 128h-32.001v64h32.001v-64z" />
<glyph unicode="&#xe61b;" d="M224 122.667c0-14.72 11.947-26.667 26.667-26.667s26.667 11.947 26.667 26.667-11.947 26.666-26.667 26.666-26.667-11.946-26.667-26.666zM42.667 480c-23.574 0-42.667-19.093-42.667-42.667v-426.667c0-23.573 19.093-42.667 42.667-42.667h426.667c23.573 0 42.667 19.093 42.667 42.667l-0.001 363.521c0 14.293-5.643 26.987-14.72 36.16l-54.187 53.973c-9.589 9.707-23.040 15.68-37.76 15.68h-362.666zM76.8 426.667h29.867v-83.2c0-13.013 10.453-23.467 23.467-23.467h27.733c13.013 0 23.467 10.453 23.467 23.467l-0.001 83.2h200.533c13.014 0 23.467-10.454 23.467-23.467v-102.4c0-13.013-10.453-23.467-23.467-23.467h-305.066c-13.013 0-23.467 10.454-23.467 23.467v102.4c0 13.013 10.454 23.467 23.467 23.467zM181.333 122.667c0 38.293 31.040 69.333 69.333 69.333s69.333-31.040 69.333-69.333-31.039-69.334-69.332-69.334-69.334 31.040-69.334 69.334z" />
<glyph unicode="&#xe61c;" d="M241.645 480c21.343 0 38.694-17.331 38.694-38.685 0-21.374-17.351-38.633-38.695-38.633-21.323 0-38.633 17.27-38.633 38.633 0 21.353 17.31 38.685 38.633 38.685zM448.83 376.711l12.608-25.169-48.612-24.352-12.608 25.169 48.612 24.352zM254.273 254.060c0-12.668-10.27-22.939-22.939-22.939s-22.939 10.27-22.939 22.939c0 12.668 10.27 22.939 22.939 22.939s22.939-10.27 22.939-22.939zM410.545 329.428c0 0 0 0.010-0.010 0.020h-0.010c-2.154 4.287-5.8 7.843-10.666 9.661-10.219 3.84-21.608-1.341-25.438-11.561l-7.466-19.921-79.442-39.791c9.051-26.392-0.508-42.565-12.81-48.731-6.43-3.231-21.445-4.572-21.445-4.572-0.468-0.082-11.683-2.042-19.647-6.248-1.819-0.965-3.555-2.134-5.212-3.474-0.030-0.021-0.041-0.041-0.061-0.061-1.645-1.32-3.2-2.834-4.663-4.5v-0.010c-2.692-3.058-5.069-6.623-6.989-10.707l-1.666-4.419c-5.079-13.805-15.238-25.6-27.113-31.553-6.035-3.017-13.125-4.612-20.47-4.612h-0.010c-19.129 0.010-45.287 11.409-61.328 43.438-9.925 19.769-12.525 39.010-7.538 55.619 3.972 13.237 12.882 24.28 24.513 30.699l42.27-46.689c0.721-0.782 1.524-1.412 2.316-2.072l16.711-33.321 9.041 4.531-11.977 23.893c4.998 0.071 9.976 1.869 13.978 5.486 8.696 7.883 9.367 21.344 1.483 30.049l-17.788 19.647c6.035-0.142 11.845 0.904 16.823 3.271 8.148 3.85 16.437 11.652 16.782 11.988 0 0 6.939 8.269 10.971 11.093 1.737 1.229 3.566 2.367 5.526 3.353 1.615 0.813 3.251 1.422 4.897 1.94 2.966 0.945 5.953 1.473 8.95 1.473 12.861 0 24.849-8.818 34.987-25.6l82.793 41.478-22.014 47.005c-2.316 3.596-5.678 7.466-10.26 10.118-5.303 3.393-13.43 5.77-25.366 6.522h-17.839v-94.111c-14.75 21.649-30.72 26.738-42.311 26.738-3.007 0-5.994-0.376-8.95-1.036v68.399l-38.918-0.183c-8.361-0.122-16.721-2.021-24.32-7.72l-67.311-50.012c-4.795-3.586-7.863-9.031-8.442-14.995-0.589-5.963 1.382-11.896 5.394-16.345l14.222-15.705c-13.186-8.096-23.212-21.090-27.814-36.419-5.892-19.637-3.017-41.945 8.29-64.558 18.529-36.988 49.463-50.164 72.209-50.164h0.010c9.234 0 18.195 2.042 25.915 5.902 3.179 1.595 6.014 3.444 8.666 5.384 0-0.010-0.020-0.021-0.030-0.031l0.214-179.099h48.254v204.475h17.828v-204.465h48.203v240.874h22.41v73.123l13.969-29.826c3.251-6.969 10.24-11.388 17.889-11.388 0.254 0 0.508 0 0.782 0.010 7.934 0.315 14.933 5.353 17.717 12.81l22.187 59.124c0.010 0.041 0.010 0.082 0.031 0.122 0.569 1.91 2.316 9.885-0.904 15.654zM187.195 344.249v-50.956c-2.174-0.61-4.47-1.026-6.989-1.026-2.143 0-4.338 0.224-6.044 0.559l-4.459 1.29c-1.362 0.406-2.763 0.741-4.175 1.067l-17.778 19.637 39.446 29.43z" />
<glyph unicode="&#xe61d;" d="M88.386 312.074c0 4.291 3.487 7.752 7.767 7.752h222.459c4.281 0 7.767-3.461 7.767-7.752s-3.486-7.752-7.767-7.752h-222.459c-4.281 0-7.767 3.461-7.767 7.752zM96.153 260.286h222.459c4.281 0 7.767 3.487 7.767 7.752 0 4.316-3.486 7.777-7.767 7.777h-222.459c-4.275 0-7.767-3.461-7.767-7.777 0-4.26 3.487-7.752 7.767-7.752zM96.153 216.248h222.459c4.281 0 7.767 3.486 7.767 7.778s-3.486 7.751-7.767 7.751h-222.459c-4.275 0-7.767-3.461-7.767-7.751s3.487-7.778 7.767-7.778zM189.496 187.684h-93.343c-4.275 0-7.767-3.43-7.767-7.752 0-4.26 3.487-7.752 7.767-7.752h93.343c4.291 0 7.751 3.492 7.751 7.752 0 4.322-3.461 7.752-7.751 7.752zM287.969 99.61h-37.136c-4.291 0-7.762-3.456-7.762-7.752 0-4.291 3.471-7.777 7.762-7.777h37.136c4.275 0 7.767 3.486 7.767 7.777 0 4.296-3.492 7.752-7.767 7.752zM96.153 348.385h222.459c4.281 0 7.767 3.461 7.767 7.752 0 4.265-3.486 7.752-7.767 7.752h-222.459c-4.275 0-7.767-3.487-7.767-7.752 0-4.291 3.487-7.752 7.767-7.752zM389.151 171.136v-153.175c0-8.55-6.933-15.498-15.514-15.498h-332.524c-8.571-0.005-15.514 6.948-15.514 15.498v412.078c0 8.555 6.943 15.504 15.514 15.504h332.524c8.581 0 15.514-6.948 15.514-15.498v-215.035l63.621 63.606c4.024 4.039 9.646 5.12 14.797 3.82l0.798 0.829c3.031 3.015 7.946 3.015 10.988 0 3.031-3.015 3.031-7.946 0-10.988l-0.829-0.804c1.316-5.15 0.22-10.767-3.804-14.812l-85.57-85.524zM358.134 140.078l-21.105-21.063c-3.031-3.046-6.989-4.567-10.962-4.567-1.316 0-2.545 0.44-3.835 0.748l-11.719-11.735c-1.521-1.526-3.502-2.268-5.478-2.268-2.007 0-3.968 0.748-5.478 2.268-3.046 3.046-3.046 7.946 0 10.962l11.719 11.735c-1.316 5.12-0.205 10.772 3.804 14.781l43.054 43.038v230.533h-301.491v-381.020h301.497v106.588zM484.132 244.731c-3.031 3.047-7.931 3.047-10.962 0l-64.911-64.906c-3.041-3.046-3.041-7.946 0-10.962 1.51-1.526 3.476-2.299 5.468-2.299 1.981 0 3.968 0.773 5.494 2.299l64.906 64.906c3.031 3.047 3.031 7.946 0.005 10.962z" />
<glyph unicode="&#xe61e;" d="M147.425 253.993c4.265 9.82-7.26 49.526-2.135 61.051 5.12 11.525 9.82 18.786 8.535 37.995-1.28 19.21 33.731 29.885 40.986 30.74-1.28 7.685 1.705 6.405 1.705 6.405s5.12-2.99 12.805-1.705c7.685 1.28 20.495-10.675 36.291-2.99 17.505-8.535 34.156-5.975 36.291-13.235s10.245-20.066 14.090-23.056c1.705-8.11 5.55-12.805 6.83-14.515s13.66-26.471 9.39-62.761c4.27 0.855 0 0 5.55 1.28 0.43 14.085 7.685 31.166 19.64 36.291 0 0 29.89 87.952-57.211 126.377-87.096 38.425-94.351-1.28-102.466-1.705s-81.546-17.505-61.051-93.076c20.49-75.566 11.95-47.815 12.38-48.671 0.44-0.855 17.516-23.911 18.37-38.425zM235.806 330.988c1.705 3.988 4.833 9.39 14.94 9.39s14.802-0.425 16.794-0.281 10.962-1.423 17.935-10.532c0 0-12.524 4.27-18.361 4.127 0 0-13.522-1.705-20.352-1.28s-10.957-1.423-10.957-1.423zM210.626 329.165c-2.463 3.564-6.605 8.243-16.512 6.242-9.907-2.007-14.423-3.353-16.405-3.609-1.976-0.256-10.455-3.569-15.483-13.881 0 0 11.428 6.671 17.173 7.685 0 0 13.594 1.009 20.203 2.78 6.61 1.777 11.024 0.784 11.024 0.784zM196.096 302.167c0-3.263-2.675-5.909-5.975-5.909s-5.975 2.645-5.975 5.909c0 3.263 2.675 5.909 5.975 5.909s5.975-2.646 5.975-5.909zM267.822 308.997c0-3.263-2.675-5.909-5.975-5.909s-5.975 2.646-5.975 5.909c0 3.263 2.675 5.909 5.975 5.909s5.975-2.646 5.975-5.909zM261.99 309.499c0-0.786-0.637-1.423-1.423-1.423s-1.423 0.637-1.423 1.423c0 0.786 0.637 1.423 1.423 1.423s1.423-0.638 1.423-1.423zM190.264 302.663c0-0.786-0.637-1.423-1.423-1.423s-1.423 0.637-1.423 1.423c0 0.786 0.637 1.423 1.423 1.423s1.423-0.637 1.423-1.423zM176.886 169.462c-5.12-4.147-3.84-10.368-26.895-14.515-23.055-4.152-80.476-33.802-94.141-37.115l-10.568-6.4 0.532-107.591h126.377c0 0 4.695 152.478 8.11 155.802-2.135 4.966-3.415 9.82-3.415 9.82zM309.806 191.375c3.415-4.551 17.858-11.935 2.775-50.647s-48.169-136.888-48.169-136.888h191.268v108.411c0 0-115.277 56.069-119.829 61.194s-19.353 25.334-25.615 25.334c-0.286-7.404-0.43-7.404-0.43-7.404zM172.324 72.407l-0.266 3.405c6.19 0.481 14.669 7.337 19.722 15.954 3.968 6.769 16.661 16.702 27.428 20.286-7.393 5.151-20.418 16.937-21.074 17.756l-0.819 1.055c-1.049 1.377-2.8 3.666-6.256 7.7-5.218 3.958-8.632 13.322-8.781 14.034-0.082 0.374-0.85 2.745-3.298 8.469-2.703 3.901-3.63 11.126-3.671 11.423v0c0 0-1.915 14.853-2.893 21.786-3.369 4.639-8.94 11.73-14.151 17.438-0.927 1.019-1.767 2.094-2.524 3.19-3.256-0.272-6.042 0.584-8.249 2.493-3.983 3.425-4.818 9.314-4.997 11.597-2.877 2.155-5.765 6.933-8.566 11.561-1.5 2.483-2.918 4.828-4.055 6.251-3.328 4.162-4.582 12.687-6.472 25.595l-0.712 4.818c-1.044 6.969-0.394 11.638 1.977 14.274 2.32 2.57 5.494 2.494 7.388 2.417l-0.071-3.349h-0.087c-1.546 0-3.466 0.092-4.7-1.285-0.317-0.353-0.64-0.891-0.906-1.597 4.336-0.020 11.853-2.115 16.819-11.673l-3.031-1.582c-4.577 8.822-11.505 9.969-14.423 9.81-0.097-1.654 0.005-3.784 0.409-6.502l0.712-4.823c1.746-11.914 3.010-20.521 5.765-23.962 1.275-1.593 2.75-4.035 4.306-6.615 2.576-4.26 5.775-9.559 8.151-10.9l0.85-0.487 0.010-0.983c0-0.071 0.133-6.779 3.861-9.984 1.106-0.952 2.411-1.495 3.958-1.654-3.394 6.41-4.342 12.754-4.506 14.054-1.5 4.055-2.437 10.563-3.052 16.819-1.849-0.778-4.418-1.546-6.359-0.087-1.772 1.326-2.32 3.988-1.685 8.131l3.374-0.522c-0.619-4.019 0.256-4.802 0.358-4.879 0.732-0.563 3.088 0.532 3.968 0.947 0 0 0.010 0 0.016 0.005-0.266 3.215-0.451 6.215-0.604 8.591-0.128 2.069-0.226 3.62-0.317 4.347l3.389 0.425c0.092-0.763 0.2-2.386 0.333-4.557 0.482-7.608 1.367-21.77 3.84-28.206l0.102-0.425c0.010-0.113 1.326-11.377 8.249-18.959 5.145-5.637 10.941-12.969 14.5-17.884l0.302 0.046c0.025-0.185 0.056-0.379 0.087-0.584 1.326-1.853 2.294-3.313 2.724-4.132l0.272-0.527c1.434-2.775 4.101-7.946 12.073-11.059 2.105-1.316 3.999-2.632 5.975-4.004 9.493-6.589 21.315-14.797 32.041-11.469 4.69 2.37 9.047 1.925 11.146 1.705 0.394-0.041 0.645-0.062 0.865-0.062 3.451 0 11.612 0.743 18.32 7.337 6.303 4.291 9.226 6.702 11.356 8.453 1.454 1.193 2.601 2.14 4.137 3.144l1.869-2.867c-1.382-0.901-2.406-1.741-3.83-2.913-2.186-1.802-5.187-4.265-11.377-8.453-7.454-7.363-16.686-8.156-20.48-8.115-0.374 0-0.743 0.031-1.208 0.082-1.915 0.2-5.468 0.563-9.534-1.469-12.59-3.901-25.16 4.808-35.257 11.827-1.94 1.351-3.804 2.647-5.571 3.779-7.040 2.719-10.486 7.152-12.37 10.342 0.911-6.82 1.869-14.259 1.869-14.259 0.010-0.077 0.875-6.717 3.267-10.224 2.064-4.746 3.435-8.325 3.661-9.421 0.205-0.748 3.425-9.022 7.613-12.089l0.286-0.266c3.6-4.193 5.417-6.569 6.507-7.987l0.778-1.009c1.25-1.459 17.899-16.108 22.656-18.586 0.179-0.041 0.389-0.082 0.619-0.108 1.095 0.149 2.145 0.2 3.133 0.149 0.609-0.036 1.229-0.103 1.863-0.2 1.506 0.113 3.333 0.297 5.54 0.676 16.87 6.912 65.833 43.582 74.399 74.302h-1.49c0 5.12 3.553 27.474 6.144 43.899 0.839 5.32 1.562 9.897 1.986 12.774l3.379-0.492c-0.43-2.882-1.152-7.45-1.991-12.78-0.226-1.429-0.466-2.929-0.707-4.475 2.596 1.511 4.813 4.588 6.108 6.375 0.313 0.425 0.579 0.793 0.804 1.085l0.246 0.313c1.296 1.643 2.514 3.195 3.466 10.809l0.179 0.573c18.192 34.949 17.479 50.658 13.68 57.682-2.104 3.897-5.392 5.207-6.999 5.366l0.338 3.399c2.837-0.281 7.060-2.325 9.666-7.143 4.178-7.731 5.223-24.525-13.517-60.61-1.070-8.299-2.627-10.276-4.132-12.185l-0.236-0.297c-0.205-0.266-0.455-0.604-0.738-0.999-1.915-2.647-5.12-7.071-9.498-8.335-1.572-10.025-3.277-21.171-4.163-28.298l2.094-0.149c-2.284-31.928-58.219-75.597-77.302-83.748 7.767-3.364 16.2-9.508 22.882-14.392 1.398-1.019 2.709-1.976 3.891-2.811 8.443-5.995 20.711-13.932 29.594-13.072l0.313-3.405c-10.025-0.937-22.989 7.378-31.887 13.686-1.188 0.85-2.514 1.813-3.922 2.846-7.987 5.822-19.763 14.413-28.298 15.969-1.997-0.128-3.589-0.108-4.859 0.041-10.179-1.644-25.334-12.918-29.338-19.743-4.844-8.284-14.101-16.998-22.39-17.639zM224.819 209.29c-3.097 0-6.313 0.798-8.074 2.038-1.434 1.009-3.845 2.391-5.975 3.599-1.198 0.686-2.32 1.326-3.169 1.838-1.070-0.118-2.243-0.231-3.533-0.338-0.138-0.2-0.906-1.69-1.362-2.575-0.752-1.449-1.454-2.821-2.396-3.594l-2.166 2.647c0.394 0.322 1.049 1.587 1.526 2.514 1.126 2.186 2.191 4.255 4.112 4.413 5.474 0.461 8.361 0.911 10.988 2.355 0.317 0.169 0.676 0.384 1.075 0.62 3.22 1.899 9.078 5.345 14.592 2.841 4.618 2.744 8.781 1.219 11.874 0.087 1.137-0.415 2.207-0.809 3.123-0.937 3.323-0.471 7.081 0.394 10.885 2.509 4.163 2.314 6.917 2.544 9.488 0.763l-1.945-2.811c-0.993 0.686-2.181 1.116-5.883-0.942-0.886-0.487-1.767-0.922-2.647-1.295l0.113-0.159c-0.307-0.226-0.707-0.486-1.178-0.798-1.894-1.244-5.069-3.323-8.51-7.204-4.9-5.524-10.798-4.716-12.482-3.998l-0.369 0.169c-0.41 0.2-0.707 0.327-2.755-0.697-1.454-0.727-3.374-1.045-5.33-1.045zM214.722 216.601c1.5-0.87 2.949-1.746 3.988-2.478 1.951-1.377 7.414-1.986 9.922-0.722 3.006 1.5 4.25 1.428 5.744 0.722 0.286-0.128 4.741-1.091 8.827 3.522 1.162 1.31 2.294 0.491 3.364 3.906 0 0-0.005 0-0.005 0-2.468 0-6.165-1.822-9.134-2.877-3.671-2.37-10.936-2.329-13.747-1.817-1.649 0.292-5.463-0.057-8.96-0.256zM220.242 220.201c1.628 0 3.088-0.067 4.060-0.246 3.154-0.579 9.155-0.42 11.376 1.137l0.399 0.21c1.459 0.533 3.067 0.993 4.629 1.387-2.98 1.086-5.837 1.961-9.175-0.404l-0.906-0.64-0.947 0.558c-3.83 2.258-8.535-0.272-11.582-2.043 0.722 0.026 1.449 0.041 2.145 0.041zM189.619 209.392c-0.86 2.939 1.008 19.067 4.244 25.395 3.272 6.395 10.332 25.052 10.655 25.052h0.025c-0.041 5.12 0.573 7.726 1.449 9.298l2.985-1.561c-1.264-2.279-1.52-11.484-0.005-12.995 1.982-1.982 3.471-2.678 4.629-2.786-0.19 0.118-0.369 0.246-0.548 0.363l-0.358 0.24 1.828 2.882 0.384-0.24c5.145-3.328 8.986-4.976 11.74-4.894 4.762 0.138 12.529 2.657 14.474 5.284l2.744-2.028c-0.276-0.379-0.619-0.748-1.008-1.095 0.297-0.071 1.326-0.149 3.43 1.47 2.422 1.863 2.053 6.554 0.86 10.982-0.092 0.256-0.164 0.481-0.205 0.676l0.020 0.005c-0.748 2.585-1.741 5.033-2.581 6.718l3.056 1.526c0.154-0.317 1.894-3.84 3.047-8.12 1.613-3.901 11.177-17.5 15.529-20.731 5.012-4.777 9.707-10.675 7.741-19.262l-3.328 0.758c1.275 5.576-0.64 10.178-6.615 15.893-3.021 2.243-8.474 9.175-12.37 15.037-0.236-2.473-1.126-4.695-3.067-6.19-2.519-1.935-4.751-2.601-6.615-1.997-0.829 0.272-1.434 0.738-1.869 1.224-4.004-2.119-9.579-3.461-13.143-3.569-3.016-0.016-6.405 1.275-9.441 2.903l0.149-0.251c-3.379-1.961-7.045-1.019-10.895 2.832-0.333 0.333-0.625 0.778-0.865 1.3-2.606-6.543-6.82-16.24-8.786-20.086-3.042-5.954-4.49-21.34-4.004-23.081l-3.287-0.952zM317.747 256.005c-0.072 0.138-1.628 3.353 0.409 7.68 1.147 2.437-0.44 10.711-2.642 17.305l3.246 1.081c0.384-1.168 3.067-9.406 3.175-15.391 0.149-0.071 0.317-0.149 0.502-0.231 0.886-0.41 3.236-1.511 3.968-0.947 0.108 0.077 0.973 0.86 0.358 4.88l3.374 0.522c0.635-4.142 0.087-6.804-1.685-8.13-2.13-1.608-5.038-0.512-6.892 0.317-0.092-0.307-0.195-0.594-0.317-0.86-1.305-2.765-0.471-4.644-0.435-4.721l-3.062-1.505zM201.467 280.581l-2.202 2.611c7.306 6.164 11.269 12.943 11.448 19.599 0.154 5.673-2.432 10.168-4.69 12.293l2.345 2.488c2.77-2.611 5.945-8.074 5.76-14.874-0.149-5.34-2.463-13.511-12.662-22.118zM185.57 284.713c-3.108 0-6.569 0.405-10.435 1.506l0.937 3.287c9.314-2.657 15.923-0.916 21.248 0.492l0.333 0.087 0.87-3.303-0.338-0.087c-3.369-0.886-7.511-1.982-12.615-1.982zM262.646 289.946c-7.296 0-14.285 0.599-16.496 1.449l1.229 3.19c3.174-1.224 25.575-2.135 32.026 0.553l1.316-3.154c-3.512-1.465-10.942-2.038-18.074-2.038zM168.816 291.394l-1.224 3.19c1.874 0.722 2.442 1.362 4.121 3.251 1.131 1.275 2.673 3.010 5.268 5.494 7.101 6.789 18.114 4.803 18.576 4.71 4.112-0.154 6.185-1.93 8.007-3.502 1.393-1.198 2.596-2.233 4.874-2.775l-0.784-3.323c-3.093 0.738-4.803 2.207-6.318 3.507-1.674 1.438-3 2.575-6.174 2.708-0.338 0.051-10.014 1.767-15.821-3.799-2.494-2.386-3.988-4.066-5.079-5.294-1.802-2.027-2.796-3.149-5.447-4.167zM283.044 299.376c-2.704 0.86-3.763 1.92-5.688 3.845-1.162 1.162-2.745 2.75-5.381 4.987-6.134 5.212-15.688 2.923-15.78 2.898-3.399-0.358-4.654-1.572-6.242-3.108-1.434-1.387-3.062-2.959-6.098-3.876l-0.983 3.272c2.243 0.676 3.385 1.782 4.71 3.056 1.726 1.674 3.691 3.574 8.023 4.009 0.215 0.071 11.1 2.704 18.581-3.656 2.734-2.324 4.377-3.968 5.581-5.171 1.797-1.792 2.396-2.396 4.311-3.006l-1.034-3.251zM173.097 350.090l-1.531 3.056c5.545 2.775 24.95 7.178 35.856 5.719 10.256-1.382 12.503-0.993 18.478 1.454 6.6 2.698 37.345 4.47 48.676-1.341l-1.562-3.036c-10.137 5.207-39.936 3.625-45.824 1.219-6.462-2.647-9.293-3.154-20.224-1.68-9.953 1.346-28.575-2.734-33.869-5.392zM224.302 61v0c-5.601 0-9.723 2.243-11.034 6.006l-0.087 0.389c-1.142 11.689-9.564 24.812-13.855 30.116l-0.958 1.173 1.054 1.091c9.072 9.37 26.578 13.399 27.321 13.568l0.215 0.051 0.226-0.010c8.284-0.322 25.62-9.887 32.538-17.956l1.31-1.536-1.731-1.039c-4.434-2.668-19.031-21.346-24.279-28.313-2.361-2.233-6.492-3.538-10.721-3.538zM216.56 67.952c1.3-3.277 6.236-3.533 7.742-3.533v0c3.308 0 6.681 0.983 8.208 2.401 1.623 2.197 16.466 21.822 23.388 27.725-7.23 7.337-22.165 15.002-28.621 15.416-1.94-0.471-16.231-4.127-24.335-11.53 4.679-6.164 12.406-18.882 13.619-30.48zM245.939 3.84h-55.194l0.917 3.599c0.102 0.251 10.055 26.25 13.424 36.342 1.085 3.267 1.817 6.907 2.458 9.831 1.423 6.471 2.652 12.211 7.107 14.085l0.937 0.471 0.788-0.589c2.75-2.192 5.632-3.282 8.581-3.282 4.434 0 7.588 2.555 7.624 2.58l2.176 1.787 0.583-2.739c0.292-1.377 1.183-6.016 0.522-8.002l-0.143-0.42c-0.532-1.526-1.137-3.246 0.886-7.065 2.617-4.935 8.345-39.552 8.99-43.336l0.343-3.262zM195.753 8.96h46.131c-2.535 15.36-6.6 36.24-8.304 39.46-2.714 5.135-1.736 8.146-1.090 10l0.123 0.471c0.159 0.471 0.066 2.053-0.19 3.83-1.731-0.901-4.337-1.843-7.47-1.843-3.405 0-6.686 1.137-9.79 3.353-2.227-1.659-3.149-5.858-4.291-11.038-0.661-3.015-1.413-6.841-2.56-10.281-2.775-8.346-10-28.831-12.559-33.95z" />
<glyph unicode="&#xe61f;" d="M486.4 56.32c0 0-51.2 249.165-275.84 249.165v98.995l-184.96-165.248 184.96-171.29v111.565c121.933 0 212.275-10.803 275.84-123.187z" />
<glyph unicode="&#xe620;" d="M389.979 472.161h-248.996c-4.262 0-7.712-3.451-7.712-7.707v-418.699c0-4.262 3.451-7.707 7.712-7.707h42.078l155.894-60.296c0.861-0.334 1.772-0.509 2.676-0.509 1.474 0 2.942 0.44 4.188 1.3 2.019 1.387 3.227 3.673 3.227 6.114v53.391h40.933c4.256 0 7.7 3.45 7.7 10.202v418.705c0 1.753-3.45 5.203-7.7 5.203zM306.651 162.248c-11.485 0-20.777 9.291-20.777 20.777 0 11.465 9.291 20.77 20.777 20.77s20.777-9.303 20.777-20.77c-0.005-11.485-9.298-20.777-20.777-20.777zM382.273 53.454h-33.227v345.214c0 3.209-2.063 6.046-5.11 7.043l-155.653 51.029h193.984v-403.286z" />
<glyph unicode="&#xe621;" d="M53.261 26.893h15.971v378.25h193.323v-378.25h15.971v394.221h-225.266zM289.79 421.113v-394.214l168.949-56.322v506.848z" />
<glyph unicode="&#xf03d;" d="M160 384l-160-192h96v-128h128v128h96l-160 192z" horiz-adv-x="320" />
<glyph unicode="&#xf03f;" d="M224 256v128h-128v-128h-96l160-192 160 192h-96z" horiz-adv-x="320" />
<glyph unicode="&#xf051;" d="M192 400l-192-144 192-144v96c55.5 0 164.5-30.5 192-140 0 145.5-98 225.5-192 236v96z" horiz-adv-x="384" />
</font>
</defs>
</svg>
